<svg id="Glyph" height="512" viewBox="0 0 64 64" width="512" xmlns="http://www.w3.org/2000/svg"><path d="m4 38h46v2h-46z"/><circle cx="52" cy="43" r="1"/><path d="m50 12h-46v24h46zm-32 16a2.8 2.8 0 0 0 2.343-1.515l1.715 1.03a4.81 4.81 0 0 1 -4.058 2.485c-2.757 0-5-2.691-5-6s2.243-6 5-6a4.81 4.81 0 0 1 4.058 2.485l-1.715 1.03a2.8 2.8 0 0 0 -2.343-1.515c-1.654 0-3 1.794-3 4s1.346 4 3 4zm12-3h-2v2h-2v-2h-2v-2h2v-2h2v2h2zm8 0h-2v2h-2v-2h-2v-2h2v-2h2v2h2z"/><path d="m52 24h4v2h-4z"/><path d="m52 20.092h4v1.908h-4z"/><path d="m24 42h6v6h-6z"/><path d="m49.5 50-1.5 2h8l-1.5-2z"/><path d="m52 16v2.092h5a1 1 0 0 1 1 1v7.908a1 1 0 0 1 -1 1h-5v12a3 3 0 1 1 -3 3 2.966 2.966 0 0 1 .184-1h-5.184v10h1.5l2.7-3.6a1 1 0 0 1 .8-.4h6a1 1 0 0 1 .8.4l2.7 3.6h1.5v-36zm3 16h-2v-2h2z"/><path d="m19 50h16v2h-16z"/></svg>