<svg id="_x33_0" enable-background="new 0 0 64 64" height="512" viewBox="0 0 64 64" width="512" xmlns="http://www.w3.org/2000/svg"><g><path d="m50 27c7.168 0 13-5.832 13-13s-5.832-13-13-13-13 5.832-13 13 5.832 13 13 13zm-9.786-8h3.69c.878 2.362 2.221 4.293 3.355 5.64-3.072-.792-5.626-2.874-7.045-5.64zm-1.214-5c0-1.041.155-2.045.426-3h3.893c-.212.952-.345 1.951-.345 3s.133 2.048.345 3h-3.893c-.271-.955-.426-1.959-.426-3zm10.974-10.629c.947.944 2.731 2.954 3.895 5.629h-7.79c1.163-2.675 2.947-4.685 3.895-5.629zm4.59 7.629c.25.948.41 1.949.41 3s-.16 2.052-.41 3h-9.181c-.25-.948-.41-1.949-.41-3s.16-2.052.41-3zm6.436 3c0 1.041-.155 2.045-.426 3h-3.945c.212-.952.345-1.951.345-3s-.133-2.048-.345-3h3.945c.271.955.426 1.959.426 3zm-11.026 10.629c-.948-.944-2.731-2.953-3.895-5.629h7.79c-1.164 2.675-2.948 4.685-3.895 5.629zm2.699.029c1.137-1.348 2.489-3.285 3.37-5.658h3.743c-1.43 2.786-4.01 4.879-7.113 5.658zm7.113-15.658h-3.743c-.882-2.373-2.233-4.31-3.37-5.658 3.103.779 5.683 2.872 7.113 5.658zm-12.527-5.64c-1.134 1.347-2.477 3.278-3.355 5.64h-3.69c1.419-2.766 3.973-4.848 7.045-5.64z"/><path d="m41 39.935c0-1.421-.336-2.843-.971-4.112l-.949-1.899 1.064-3.193-1.73-1.731.586-.586c.645-.645 1-1.502 1-2.414s-.355-1.77-1-2.414l-4.586-4.586c-.969-.969-2.482-1.209-3.72-.72l-1.28-1.28c-.835-.835-2.072-1.12-3.192-.873-2.507-1.388-5.337-2.127-8.222-2.127-9.374 0-17 7.626-17 17 0 4.764 2.018 9.339 5.536 12.553.611.559 1.362 1.162 2.156 1.801 2.764 2.224 6.451 5.225 8.802 9.846-2.581.67-4.494 3.012-4.494 5.8v2h25l-3.601-4.8c-1.69-2.255-2.785-4.899-3.202-7.68l4.72-2.36c3.136-1.568 5.083-4.72 5.083-8.225zm-20 7.065c-3.309 0-6-2.691-6-6 0-1.264.393-2.464 1.113-3.473l1.454 1.454c-.352.595-.567 1.279-.567 2.019 0 2.206 1.794 4 4 4s4-1.794 4-4c0-1.817-1.224-3.336-2.886-3.823l1.591-1.516c1.988 1.012 3.295 3.078 3.295 5.339 0 3.309-2.691 6-6 6zm-11.809-9.428c-1.412-1.891-2.191-4.2-2.191-6.572 0-6.065 4.935-11 11-11 1.097 0 2.164.168 3.192.481-.761 1.007-1.192 2.25-1.192 3.519 0 1.239.411 2.453 1.139 3.447l-.139.139c-.645.645-1 1.502-1 2.414 0 .183.025.361.053.538l-4.717 4.811c-.253.254-.48.526-.694.805-1.767.688-3.592 1.149-5.451 1.418zm13.39-11.567c-.369-.601-.581-1.295-.581-2.005 0-.458.094-.908.253-1.333l1.833 1.833zm-1.581 12.995c1.103 0 2 .897 2 2s-.897 2-2 2-2-.897-2-2 .897-2 2-2zm-2.104-1.519-1.439-1.439 3.55-3.622 1.562 1.562zm8.104-1.895-4.586-4.586c-.267-.268-.414-.622-.414-1s.147-.732.414-1l1.586-1.586 6.586 6.586-1.586 1.586c-.535.533-1.465.533-2 0zm.914-7.086 6.586-6.586 1.586 1.586-6.586 6.586zm4.086 4.086-1.086-1.086 6.586-6.586.086.086c.267.268.414.622.414 1s-.147.732-.414 1zm1-12.172.086.086-6.586 6.586-1.086-1.086 5.586-5.586c.268-.267.622-.414 1-.414s.732.147 1 .414zm-5-2 1.086 1.086-3.586 3.586-2.086-2.086 2.586-2.586c.535-.533 1.465-.533 2 0zm-10-2.414c2.159 0 4.282.472 6.227 1.359l-1.533 1.533c-1.495-.58-3.068-.892-4.694-.892-7.168 0-13 5.832-13 13 0 2.409.682 4.76 1.93 6.794-.438.023-.874.062-1.314.062h-.932c-1.082-2.104-1.684-4.448-1.684-6.856 0-8.271 6.729-15 15-15zm-12.1 23.85c2.531-.026 5.02-.401 7.429-1.122-.204.693-.313 1.418-.323 2.159-1.769.468-3.582.769-5.412.893-.621-.599-1.191-1.241-1.694-1.93zm4.046 3.945c-.096-.077-.174-.142-.267-.216 1.199-.158 2.386-.387 3.557-.685.756 3.096 3.314 5.486 6.498 5.996-.333 1.12-1.069 2.073-2.052 2.684-2.4-3.479-5.388-5.89-7.736-7.779zm5.054 17.205c0-2.206 1.794-4 4-4 2.538 0 4.786 1.604 5.612 4zm19 0h-7.279l-.191-.573c-.171-.513-.405-.987-.667-1.442 1.951-.064 3.826-.751 5.42-1.971.447.828.949 1.629 1.517 2.386zm-8.447-9.895.895 1.789 2.874-1.437c.235 1.27.6 2.51 1.085 3.701-1.396 1.19-3.093 1.842-4.844 1.842h-1.324c-1.26-1.111-2.855-1.807-4.591-1.949-.285-.618-.584-1.218-.908-1.784 1.477-.92 2.57-2.381 2.997-4.092l.054-.216c4.041-.397 7.209-3.815 7.209-7.959 0-1.062-.235-2.086-.629-3.036.771-.083 1.488-.408 2.043-.964l6.586-6.586.856.856-.936 2.807 1.32 2.64c.497.993.76 2.105.76 3.218 0 2.743-1.524 5.21-3.978 6.437z"/><path d="m54 29c-4.963 0-9 4.037-9 9 0 1.053.191 2.06.525 3h-2.525c-1.103 0-2 .897-2 2v14c0 1.103.897 2 2 2h16c1.103 0 2-.897 2-2v-13.355c1.248-1.545 2-3.508 2-5.645 0-4.963-4.037-9-9-9zm0 2c3.859 0 7 3.141 7 7s-3.141 7-7 7-7-3.141-7-7 3.141-7 7-7zm-11 26v-14h3.522c.507.756 1.127 1.429 1.834 2h-3.356v2h9c1.849 0 3.569-.562 5-1.522v11.522z"/><path d="m51 33.233v9.533l7.943-4.766zm2 3.534 2.057 1.233-2.057 1.233z"/><path d="m45 53h12v2h-12z"/><path d="m43 61h2v2h-2z"/><path d="m47 61h2v2h-2z"/><path d="m51 61h2v2h-2z"/><path d="m45 49h12v2h-12z"/></g></svg>